<svg xmlns="http://www.w3.org/2000/svg" viewBox="0 0 128 128" width="128" height="128">
  <defs>
    <linearGradient id="bg" x1="0%" y1="0%" x2="100%" y2="100%">
      <stop offset="0%" stop-color="#ff7a18"/>
      <stop offset="100%" stop-color="#ff3d5a"/>
    </linearGradient>
    <filter id="softShadow" x="-20%" y="-20%" width="140%" height="140%">
      <feDropShadow dx="0" dy="3" stdDeviation="3" flood-color="#7a0d25" flood-opacity="0.35"/>
    </filter>
  </defs>

  <rect x="4" y="4" width="120" height="120" rx="30" fill="url(#bg)"/>

  <g filter="url(#softShadow)" fill="#ffffff">
    <rect x="39" y="47" width="11" height="31" rx="6"/>
    <rect x="52" y="39" width="11" height="39" rx="6"/>
    <rect x="65" y="36" width="11" height="42" rx="6"/>
    <rect x="78" y="43" width="11" height="35" rx="6"/>
    <path d="M34 78c0-11 7-18 16-18h28c9 0 16 7 16 16 0 16-12 28-30 28-17 0-30-11-30-26z"/>
  </g>

  <g stroke="#ffffff" stroke-width="6" stroke-linecap="round" opacity="0.95">
    <line x1="26" y1="26" x2="16" y2="16"/>
    <line x1="102" y1="26" x2="112" y2="16"/>
  </g>
</svg>
